<mxfile host="app.diagrams.net" agent="Mozilla/5.0 (Windows NT 10.0; Win64; x64) AppleWebKit/537.36 (KHTML, like Gecko) Chrome/134.0.0.0 Safari/537.36" version="26.1.3">
  <diagram name="Trang-1" id="20DydufvjZFYAHsk7irZ">
    <mxGraphModel dx="1290" dy="522" grid="1" gridSize="10" guides="1" tooltips="1" connect="1" arrows="1" fold="1" page="1" pageScale="1" pageWidth="827" pageHeight="1169" math="0" shadow="0">
      <root>
        <mxCell id="0" />
        <mxCell id="1" parent="0" />
        <mxCell id="ifC74ZgH-8w3_2ASYU0R-11" style="edgeStyle=orthogonalEdgeStyle;rounded=0;orthogonalLoop=1;jettySize=auto;html=1;entryX=0;entryY=0.5;entryDx=0;entryDy=0;" edge="1" parent="1" source="ifC74ZgH-8w3_2ASYU0R-1" target="ifC74ZgH-8w3_2ASYU0R-5">
          <mxGeometry relative="1" as="geometry" />
        </mxCell>
        <mxCell id="ifC74ZgH-8w3_2ASYU0R-58" value="D6" style="edgeLabel;html=1;align=center;verticalAlign=middle;resizable=0;points=[];" vertex="1" connectable="0" parent="ifC74ZgH-8w3_2ASYU0R-11">
          <mxGeometry x="-0.2244" y="-2" relative="1" as="geometry">
            <mxPoint as="offset" />
          </mxGeometry>
        </mxCell>
        <mxCell id="ifC74ZgH-8w3_2ASYU0R-1" value="Thêm sản phẩm&amp;nbsp;" style="ellipse;whiteSpace=wrap;html=1;" vertex="1" parent="1">
          <mxGeometry x="372" y="280" width="176" height="80" as="geometry" />
        </mxCell>
        <mxCell id="ifC74ZgH-8w3_2ASYU0R-12" style="edgeStyle=orthogonalEdgeStyle;rounded=0;orthogonalLoop=1;jettySize=auto;html=1;" edge="1" parent="1" source="ifC74ZgH-8w3_2ASYU0R-2" target="ifC74ZgH-8w3_2ASYU0R-6">
          <mxGeometry relative="1" as="geometry" />
        </mxCell>
        <mxCell id="ifC74ZgH-8w3_2ASYU0R-18" value="D1" style="edgeLabel;html=1;align=center;verticalAlign=middle;resizable=0;points=[];" vertex="1" connectable="0" parent="ifC74ZgH-8w3_2ASYU0R-12">
          <mxGeometry x="0.0167" y="-4" relative="1" as="geometry">
            <mxPoint as="offset" />
          </mxGeometry>
        </mxCell>
        <mxCell id="ifC74ZgH-8w3_2ASYU0R-2" value="Admin" style="rounded=0;whiteSpace=wrap;html=1;" vertex="1" parent="1">
          <mxGeometry x="140" y="150" width="120" height="60" as="geometry" />
        </mxCell>
        <mxCell id="ifC74ZgH-8w3_2ASYU0R-9" style="edgeStyle=orthogonalEdgeStyle;rounded=0;orthogonalLoop=1;jettySize=auto;html=1;entryX=0;entryY=0.5;entryDx=0;entryDy=0;" edge="1" parent="1" source="ifC74ZgH-8w3_2ASYU0R-4" target="ifC74ZgH-8w3_2ASYU0R-1">
          <mxGeometry relative="1" as="geometry" />
        </mxCell>
        <mxCell id="ifC74ZgH-8w3_2ASYU0R-21" value="D2" style="edgeLabel;html=1;align=center;verticalAlign=middle;resizable=0;points=[];" vertex="1" connectable="0" parent="ifC74ZgH-8w3_2ASYU0R-9">
          <mxGeometry x="-0.0693" y="2" relative="1" as="geometry">
            <mxPoint as="offset" />
          </mxGeometry>
        </mxCell>
        <mxCell id="ifC74ZgH-8w3_2ASYU0R-4" value="Thiết bị nhập" style="rounded=0;whiteSpace=wrap;html=1;" vertex="1" parent="1">
          <mxGeometry x="140" y="285" width="120" height="70" as="geometry" />
        </mxCell>
        <mxCell id="ifC74ZgH-8w3_2ASYU0R-5" value="Thông báo hêm thành công" style="rounded=0;whiteSpace=wrap;html=1;" vertex="1" parent="1">
          <mxGeometry x="630" y="290" width="120" height="60" as="geometry" />
        </mxCell>
        <mxCell id="ifC74ZgH-8w3_2ASYU0R-28" value="" style="edgeStyle=orthogonalEdgeStyle;rounded=0;orthogonalLoop=1;jettySize=auto;html=1;entryX=0.5;entryY=0;entryDx=0;entryDy=0;" edge="1" parent="1" source="ifC74ZgH-8w3_2ASYU0R-6" target="ifC74ZgH-8w3_2ASYU0R-1">
          <mxGeometry relative="1" as="geometry">
            <mxPoint x="453" y="220" as="targetPoint" />
          </mxGeometry>
        </mxCell>
        <mxCell id="ifC74ZgH-8w3_2ASYU0R-33" value="D3" style="edgeLabel;html=1;align=center;verticalAlign=middle;resizable=0;points=[];" vertex="1" connectable="0" parent="ifC74ZgH-8w3_2ASYU0R-28">
          <mxGeometry x="-0.3" y="1" relative="1" as="geometry">
            <mxPoint as="offset" />
          </mxGeometry>
        </mxCell>
        <mxCell id="ifC74ZgH-8w3_2ASYU0R-53" style="edgeStyle=orthogonalEdgeStyle;rounded=0;orthogonalLoop=1;jettySize=auto;html=1;entryX=0.5;entryY=0;entryDx=0;entryDy=0;" edge="1" parent="1" source="ifC74ZgH-8w3_2ASYU0R-6" target="ifC74ZgH-8w3_2ASYU0R-2">
          <mxGeometry relative="1" as="geometry">
            <Array as="points">
              <mxPoint x="460" y="100" />
              <mxPoint x="200" y="100" />
            </Array>
          </mxGeometry>
        </mxCell>
        <mxCell id="ifC74ZgH-8w3_2ASYU0R-59" value="D7" style="edgeLabel;html=1;align=center;verticalAlign=middle;resizable=0;points=[];" vertex="1" connectable="0" parent="ifC74ZgH-8w3_2ASYU0R-53">
          <mxGeometry x="0.0469" y="2" relative="1" as="geometry">
            <mxPoint as="offset" />
          </mxGeometry>
        </mxCell>
        <mxCell id="ifC74ZgH-8w3_2ASYU0R-6" value="Xử lí hợp lệ" style="ellipse;whiteSpace=wrap;html=1;" vertex="1" parent="1">
          <mxGeometry x="400" y="140" width="120" height="80" as="geometry" />
        </mxCell>
        <mxCell id="ifC74ZgH-8w3_2ASYU0R-14" value="Database" style="shape=partialRectangle;whiteSpace=wrap;html=1;left=0;right=0;fillColor=none;" vertex="1" parent="1">
          <mxGeometry x="349" y="440" width="222" height="60" as="geometry" />
        </mxCell>
        <mxCell id="ifC74ZgH-8w3_2ASYU0R-17" style="edgeStyle=orthogonalEdgeStyle;rounded=0;orthogonalLoop=1;jettySize=auto;html=1;entryX=0.63;entryY=0.95;entryDx=0;entryDy=0;entryPerimeter=0;" edge="1" parent="1" target="ifC74ZgH-8w3_2ASYU0R-1">
          <mxGeometry relative="1" as="geometry">
            <mxPoint x="520" y="439" as="sourcePoint" />
            <Array as="points">
              <mxPoint x="520" y="439" />
              <mxPoint x="520" y="390" />
              <mxPoint x="483" y="390" />
            </Array>
          </mxGeometry>
        </mxCell>
        <mxCell id="ifC74ZgH-8w3_2ASYU0R-57" value="D5" style="edgeLabel;html=1;align=center;verticalAlign=middle;resizable=0;points=[];" vertex="1" connectable="0" parent="ifC74ZgH-8w3_2ASYU0R-17">
          <mxGeometry x="0.0691" y="3" relative="1" as="geometry">
            <mxPoint as="offset" />
          </mxGeometry>
        </mxCell>
        <mxCell id="ifC74ZgH-8w3_2ASYU0R-45" style="edgeStyle=orthogonalEdgeStyle;rounded=0;orthogonalLoop=1;jettySize=auto;html=1;entryX=0.204;entryY=0.06;entryDx=0;entryDy=0;entryPerimeter=0;" edge="1" parent="1" source="ifC74ZgH-8w3_2ASYU0R-1" target="ifC74ZgH-8w3_2ASYU0R-14">
          <mxGeometry relative="1" as="geometry">
            <Array as="points">
              <mxPoint x="460" y="400" />
              <mxPoint x="394" y="400" />
            </Array>
          </mxGeometry>
        </mxCell>
        <mxCell id="ifC74ZgH-8w3_2ASYU0R-56" value="D4" style="edgeLabel;html=1;align=center;verticalAlign=middle;resizable=0;points=[];" vertex="1" connectable="0" parent="ifC74ZgH-8w3_2ASYU0R-45">
          <mxGeometry x="0.0208" y="4" relative="1" as="geometry">
            <mxPoint as="offset" />
          </mxGeometry>
        </mxCell>
      </root>
    </mxGraphModel>
  </diagram>
</mxfile>
